<?xml version="1.0" ?><svg enable-background="new 0 0 32 32" height="32px" id="svg2" version="1.1" viewBox="0 0 32 32" width="32px" xml:space="preserve" xmlns="http://www.w3.org/2000/svg" xmlns:cc="http://creativecommons.org/ns#" xmlns:dc="http://purl.org/dc/elements/1.1/" xmlns:inkscape="http://www.inkscape.org/namespaces/inkscape" xmlns:rdf="http://www.w3.org/1999/02/22-rdf-syntax-ns#" xmlns:sodipodi="http://sodipodi.sourceforge.net/DTD/sodipodi-0.dtd" xmlns:svg="http://www.w3.org/2000/svg"><g id="background"><rect fill="none" height="32" width="32"/></g><g id="music"><path d="M28,15.518V4L8,0v16.35C7.373,16.127,6.702,16,6,16c-3.316,0-6,2.691-6,6c0,3.314,2.684,6,6,6c3.311,0,6-2.686,6-6V6l12,2   v6.059C23.671,14.022,23.338,14,23,14c-4.973,0-9,4.027-9,9c0,4.971,4.027,8.998,9,9c4.971-0.002,8.998-4.029,9-9   C31.999,19.879,30.411,17.132,28,15.518z M23,29.883c-3.801-0.009-6.876-3.084-6.885-6.883c0.009-3.801,3.084-6.876,6.885-6.885   c3.799,0.009,6.874,3.084,6.883,6.885C29.874,26.799,26.799,29.874,23,29.883z"/><polygon points="22,19 22,27 26,23  "/></g></svg>