<svg width="1200" height="160" class="footer-image" viewBox="0 0 1200 160" xmlns="http://www.w3.org/2000/svg" aria-hidden="true"><style>.cls-1{fill:#0c4499}.cls-3{fill:#f2af34}.cls-4{fill:#136ffb}.cls-5{fill:#c1edfe}.cls-6{fill:#fff}.cls-7{fill:#bfecff}.cls-9{fill:#c1e8fa}.cls-10{fill:#194995}.cls-11{fill:#c0e7fa}</style><path class="cls-1" d="M98 143c4-3 9 7 9 7s-7-15 0-16c2 0 5 6 6 13 0-6 2-11 4-11 6-1 2 15 2 15l-1 9h-10s-14-14-10-17z"/><path d="M815 151h1a20 20 0 0 0 6-11c2-4 2-9-1-14-7-13-23-6-29 1a16 16 0 0 0-3 15 19 19 0 0 0 14 12 17 17 0 0 0 12-3z" style="fill:#fed036"/><path class="cls-1" d="M806 131h1v29h-1z"/><path class="cls-3" d="M508 149c-1-1-4-1-5 1a7 7 0 0 0-1 3c0-3-1-12-5-12-3 0-3 8-3 12-2-4-3-6-5-6-6 0 1 13 1 13h14l2-3a19 19 0 0 0 2-4 5 5 0 0 0 0-2 3 3 0 0 0 0-2z"/><path class="cls-4" d="M256 142c2 0 4 5 5 11 0-5 2-9 3-10 6 0 3 9 3 9l-2 8h-8s-7-17-1-18zm579 0c2 0 4 5 5 11 0-5 2-9 3-10 6 0 3 9 3 9l-2 8h-8s-7-17-1-18zm-147-4c1-6-3-33-15-29-3 2-7 8-8 11-5 9-7 27 2 34 5 3 12 2 16-2 4-3 5-8 5-14z"/><path class="cls-1" d="M674 126h1v34h-1z"/><path class="cls-3" d="M1141 143c0-4-3-7-3-10l-2-10c-2-2-3-3-6-3s-4 1-6 3l-1 10-4 10c-2 7 2 13 9 13h3a11 11 0 0 0 11-13h-1z"/><path class="cls-1" d="M1130 133h1v27h-1zM199 54l-38 63h77l-39-63z"/><path class="cls-1" d="M149 55h51v62h-51z"/><path class="cls-4" d="m149 54-38 63h77l-39-63z"/><path class="cls-5" d="m149 61-34 56h69l-35-56zm-34 56h69v21h-69z"/><path class="cls-5" d="M165 117h69v21h-69z"/><path class="cls-6" d="M130 122h14v10h-14zm81 0h14v10h-14z"/><path class="cls-4" d="M115 138h119v22H115z"/><path class="cls-1" d="M146 138h55v22h-55z"/><path class="cls-4" d="m178 101-22 37h45l-23-37z"/><path class="cls-4" d="M168 101h10v9h-10z"/><path class="cls-1" d="m168 101-22 37h45l-23-37z"/><path class="cls-4" d="m168 110-13 22h27l-14-22z"/><path class="cls-6" d="M121 141h21v13h-21zm88 0h20v13h-20z"/><path class="cls-1" d="M146 137h45v23h-45z"/><path class="cls-4" d="M168 138a7 7 0 0 1 8 7v15h-15v-15a7 7 0 0 1 7-7z"/><path class="cls-6" d="M144 89h11v17h-11z"/><path class="cls-4" d="M858 9h93v151h-93z"/><path class="cls-1" d="M951 9h23v151h-23z"/><path class="cls-7" d="M868 19h13v26h-13zm26 0h14v26h-14zm-26 33h13v27h-13zm26 0h14v27h-14zm-26 33h13v26h-13zm26 0h14v26h-14zm30-66h14v26h-14zm0 33h14v27h-14zm0 33h14v26h-14z"/><path class="cls-1" d="M883 144h32v16h-32z"/><path class="cls-6" d="M904 127c6 0 11 6 11 13v4h-30v-17z"/><path class="cls-7" d="M885 127a13 13 0 0 0-12 13v4h25v-4a13 13 0 0 0-13-13zM848 0h103v9H848z"/><path d="M951 0h23v9h-23z" style="fill:#006aff"/><path class="cls-4" d="M1014 87h59v73h-59z"/><path class="cls-1" d="M1073 87h27v73h-27z"/><path class="cls-4" d="M1082 118h32v42h-32z"/><path class="cls-1" d="M1114 118h12v42h-12z"/><path class="cls-9" d="M1024 98h40v17h-40z"/><path class="cls-6" d="M1032 98h24v17h-24zm64 32h18v23h-18z"/><path class="cls-9" d="M1114 130h8v23h-8z"/><path class="cls-6" d="M1024 137h13v17h-13z"/><path class="cls-9" d="M1024 154h13v6h-13z"/><path class="cls-1" d="M1045 133h19v27h-19z"/><path class="cls-9" d="M1049 137h15v23h-15zm-39-14h50v4h-50zm0-38h63v3h-63z"/><path class="cls-4" d="M1073 85h29v3h-29z"/><path class="cls-1" d="M1059 123h7v4h-7z"/><path class="cls-4" d="M1083 113h1v5h-1zm4 0h1v5h-1zm3 0h1v5h-1zm3 0h1v5h-1zm3 0h1v5h-1zm3 0h1v5h-1zm3 0h1v5h-1zm4 0h1v5h-1zm3 0h1v5h-1zm3 0h1v5h-1z"/><path class="cls-1" d="M1115 113h1v5h-1zm4 0h1v5h-1zm3 0h1v5h-1z"/><path class="cls-9" d="M1082 111h32v2h-32z"/><path class="cls-4" d="M1114 111h12v2h-12z"/><path class="cls-9" d="M686 123h98v33h-98z"/><path class="cls-4" d="M797 123H686l3-41h105l3 41z"/><path class="cls-9" d="m736 85 24 28h-48l24-28z"/><path class="cls-6" d="M763 115h-54l27-33zm-47-3h40l-20-25z"/><path class="cls-6" d="M733 96h7v10h-7zm-31 32h20v19h-20zm61 5h16v14h-16z"/><path class="cls-4" d="M741 134h11v22h-11z"/><path class="cls-10" d="M767 76h12v22h-12z"/><path class="cls-11" d="M711 126h2v23h-2z"/><path class="cls-11" d="M701 138v-2h23v2z"/><path class="cls-6" d="M736 120h50v4h-50z"/><path class="cls-6" d="M737 121v35h-3v-35zm21-1v36h-3v-36zm28 1v35h-3v-35z"/><path class="cls-9" d="m713 93 24 28h-48l24-28z"/><path class="cls-6" d="M740 123h-55l28-33zm-47-3h40l-20-24z"/><path class="cls-6" d="M709 104h8v12h-8z"/><path class="cls-10" d="M786 120h11v36h-11z"/><path class="cls-4" d="M788 134h6v12h-6z"/><path class="cls-10" d="M686 156h111v4H686z"/><path class="cls-4" d="M505 72h103v88H505z"/><path class="cls-1" d="M505 146h103v1H505zm0-6h103v1H505zm0-6h103-103zm0-7h103v1H505zm0-6h103v1H505zm0-6h103v1H505zm0-6h103-103zm0-7h103v1H505zm0-6h103v1H505zm0-6h103v1H505zm0-7h103v1H505zm0-6h103v1H505zm111 29h23v54h-23z"/><path class="cls-1" d="M505 72h38v37h-38z"/><path class="cls-5" d="M497 103h46v7h-46z"/><path class="cls-1" d="M526 127h17v29h-17z"/><path class="cls-5" d="M547 130h8v7h-8zm13 0h8v7h-8zm23-44h7v8h-7zm13 0h8v8h-8zm-74 40h21v4h-21z"/><path class="cls-4" d="M616 154h23v1h-23zm0-6h23v1h-23zm0-7h23v1h-23zm0-6h23v1h-23zm0-6h23v1h-23zm0-6h23-23zm0-7h23v1h-23zm-38-10h38v54h-38z"/><path class="cls-1" d="M578 154h38v1h-38zm0-6h38v1h-38zm0-7h38v1h-38zm0-6h38v1h-38zm0-6h38v1h-38zm0-6h38-38zm0-7h38v1h-38z"/><path class="cls-4" d="M505 98h38v1h-38zm0-6h38-38zm0-7h38v1h-38zm0-6h38v1h-38z"/><path class="cls-5" d="M574 105h45v7h-45z"/><path class="cls-1" d="M617 105h28v7h-28z"/><path class="cls-5" d="M497 156h81v4h-81z"/><path class="cls-4" d="M387 0h43v24h-43z"/><path class="cls-9" d="M304 0h83v24h-83z"/><path class="cls-4" d="M295 16h95v144h-95z"/><path class="cls-1" d="M387 16h54v144h-54zm-92 36h92v4h-92zm0 33h92v4h-92zm0 34h92v4h-92z"/><path class="cls-9" d="M299 23h84v28h-84zm0 35h84v25h-84zm0 33h84v25h-84zm1 34h82v35h-82z"/><path class="cls-4" d="M355 18h3v33h-3zm-32 0h4v33h-4zm32 39h3v27h-3zm-32-1h4v28h-4zm32 34h3v27h-3zm-32 0h4v27h-4zm69 1h44v25h-44zm0-33h44v25h-44zm0-35h45v28h-45z"/><path class="cls-6" d="M326 160v-20h30v20"/><path class="cls-4" d="M358 160h-4v-19h-27v19h-3v-22h34v22z"/><path class="cls-1" d="M477 143c-5-3-10 7-10 7s7-15 1-16c-3 0-5 6-7 13 0-6-1-11-3-11-6-1-3 15-3 15l2 9h10s14-14 10-17z"/><path class="cls-3" d="M1004 149c-1-1-4-1-5 1a7 7 0 0 0-1 3c0-3-1-12-5-12-3 0-3 8-3 12-1-4-3-6-5-6-6 0 1 13 1 13h14l2-3a19 19 0 0 0 2-4 5 5 0 0 0 0-2 3 3 0 0 0 0-2z"/><path class="cls-1" d="M1154 145h1a28 28 0 0 0 13 2c6 0 11-2 15-5 11-11-3-22-13-24-6-2-13-1-18 2s-8 9-6 15a15 15 0 0 0 8 10z"/><path class="cls-1" d="m1157 122 1 1a19 19 0 0 0 10 1c4 0 8-1 10-4 8-9-2-18-9-20a14 14 0 0 0-13 2 13 13 0 0 0-5 12 13 13 0 0 0 6 8z"/><path class="cls-1" d="M1165 123h1v37h-1z"/><path class="cls-4" d="M66 137c-1-6-5-11-6-17-2-5-1-11-3-16a14 14 0 0 0-25 0c-3 5-2 11-3 16l-7 17a23 23 0 0 0 8 23h28a23 23 0 0 0 8-23z"/><path class="cls-1" d="M45 113h1v47h-1z"/><path class="cls-3" d="M303 149c-1-1-4-1-5 1a7 7 0 0 0-1 3c0-3-1-12-5-12-3 0-3 8-3 12-2-4-3-6-5-6-6 0 1 13 1 13h14l2-3a19 19 0 0 0 2-4 5 5 0 0 0 0-2 3 3 0 0 0 0-2zm-219-6c-2-3-5-2-7 0a13 13 0 0 0-2 6c0-6 0-20-6-20-5 0-5 14-5 20-1-7-4-10-7-10-8 1 2 21 2 21h20l3-5a34 34 0 0 0 2-6 10 10 0 0 0 0-4 6 6 0 0 0 0-2z"/></svg>