<svg width="180" height="122" viewBox="0 0 180 122" fill="none" xmlns="http://www.w3.org/2000/svg">
<path d="M18 122C13.05 122 8.8125 120.507 5.2875 117.52C1.7625 114.534 0 110.944 0 106.75V15.25C0 11.0562 1.7625 7.46615 5.2875 4.47969C8.8125 1.49323 13.05 0 18 0H162C166.95 0 171.187 1.49323 174.712 4.47969C178.237 7.46615 180 11.0562 180 15.25V106.75C180 110.944 178.237 114.534 174.712 117.52C171.187 120.507 166.95 122 162 122H18ZM90 68.625L18 30.5V106.75H162V30.5L90 68.625ZM90 53.375L162 15.25H18L90 53.375ZM18 30.5V15.25V106.75V30.5Z" fill="white"/>
</svg>
