<svg width="129" height="125" viewBox="0 0 129 125" fill="none" xmlns="http://www.w3.org/2000/svg">
<path d="M64.5 114.583C94.1853 114.583 118.25 91.2648 118.25 62.5C118.25 33.7352 94.1853 10.4167 64.5 10.4167C34.8147 10.4167 10.75 33.7352 10.75 62.5C10.75 91.2648 34.8147 114.583 64.5 114.583Z" stroke="#F3F3F3" stroke-width="4" stroke-linecap="round" stroke-linejoin="round"/>
<path d="M75 51H75.02M54 42H74C79.5228 42 84 46.4772 84 52V72C84 77.5228 79.5228 82 74 82H54C48.4772 82 44 77.5228 44 72V52C44 46.4772 48.4772 42 54 42ZM72 60.74C72.2468 62.4045 71.9625 64.1044 71.1875 65.598C70.4125 67.0916 69.1863 68.3028 67.6833 69.0593C66.1802 69.8159 64.4769 70.0792 62.8156 69.8119C61.1543 69.5445 59.6195 68.7602 58.4297 67.5703C57.2398 66.3805 56.4555 64.8457 56.1881 63.1844C55.9208 61.5231 56.1841 59.8198 56.9407 58.3167C57.6972 56.8137 58.9084 55.5875 60.402 54.8125C61.8956 54.0375 63.5955 53.7532 65.26 54C66.9578 54.2518 68.5297 55.0429 69.7434 56.2566C70.9571 57.4703 71.7482 59.0422 72 60.74Z" stroke="#F5F5F5" stroke-width="4" stroke-linecap="round" stroke-linejoin="round"/>
</svg>
