<svg width="48" height="48" viewBox="0 0 48 48" fill="none" xmlns="http://www.w3.org/2000/svg">
<path d="M30.1 10C32.0535 10.3811 33.8488 11.3365 35.2561 12.7439C36.6635 14.1512 37.6189 15.9465 38 17.9M30.1 2C34.1586 2.45087 37.9432 4.26835 40.8325 7.15402C43.7218 10.0397 45.544 13.822 46 17.88M44 33.84V39.84C44.0023 40.397 43.8882 40.9483 43.665 41.4587C43.4419 41.9691 43.1146 42.4272 42.7042 42.8037C42.2937 43.1803 41.8092 43.467 41.2815 43.6454C40.7539 43.8239 40.1947 43.8901 39.64 43.84C33.4857 43.1713 27.574 41.0683 22.38 37.7C17.5477 34.6293 13.4507 30.5323 10.38 25.7C6.99996 20.4824 4.89649 14.542 4.24 8.36C4.19002 7.80693 4.25575 7.24952 4.433 6.72325C4.61026 6.19698 4.89515 5.71338 5.26954 5.30324C5.64393 4.89311 6.09961 4.56542 6.60759 4.34104C7.11556 4.11667 7.66468 4.00052 8.22 4H14.22C15.1906 3.99045 16.1316 4.33416 16.8675 4.96707C17.6035 5.59997 18.0842 6.47889 18.22 7.44C18.4732 9.36013 18.9429 11.2455 19.62 13.06C19.8891 13.7758 19.9473 14.5538 19.7878 15.3018C19.6283 16.0497 19.2577 16.7362 18.72 17.28L16.18 19.82C19.0271 24.8271 23.1729 28.9729 28.18 31.82L30.72 29.28C31.2638 28.7423 31.9503 28.3717 32.6982 28.2122C33.4462 28.0527 34.2242 28.1109 34.94 28.38C36.7545 29.0571 38.6399 29.5268 40.56 29.78C41.5315 29.9171 42.4188 30.4064 43.0531 31.155C43.6873 31.9036 44.0243 32.8592 44 33.84Z" fill="white"/>
<path d="M30.1 10C32.0535 10.3811 33.8488 11.3365 35.2561 12.7439C36.6635 14.1512 37.6189 15.9465 38 17.9M30.1 2C34.1586 2.45087 37.9432 4.26835 40.8325 7.15402C43.7218 10.0397 45.544 13.822 46 17.88M44 33.84V39.84C44.0023 40.397 43.8882 40.9483 43.665 41.4587C43.4419 41.9691 43.1146 42.4272 42.7042 42.8037C42.2937 43.1803 41.8092 43.467 41.2815 43.6454C40.7539 43.8239 40.1947 43.8901 39.64 43.84C33.4857 43.1713 27.574 41.0683 22.38 37.7C17.5477 34.6293 13.4507 30.5323 10.38 25.7C6.99996 20.4824 4.89649 14.542 4.24 8.36C4.19002 7.80693 4.25575 7.24952 4.433 6.72325C4.61026 6.19698 4.89515 5.71338 5.26954 5.30324C5.64393 4.89311 6.09961 4.56542 6.60759 4.34104C7.11556 4.11667 7.66468 4.00052 8.22 4H14.22C15.1906 3.99045 16.1316 4.33416 16.8675 4.96707C17.6035 5.59997 18.0842 6.47889 18.22 7.44C18.4732 9.36013 18.9429 11.2455 19.62 13.06C19.8891 13.7758 19.9473 14.5538 19.7878 15.3018C19.6283 16.0497 19.2577 16.7362 18.72 17.28L16.18 19.82C19.0271 24.8271 23.1729 28.9729 28.18 31.82L30.72 29.28C31.2638 28.7423 31.9503 28.3717 32.6982 28.2122C33.4462 28.0527 34.2242 28.1109 34.94 28.38C36.7545 29.0571 38.6399 29.5268 40.56 29.78C41.5315 29.9171 42.4188 30.4064 43.0531 31.155C43.6873 31.9036 44.0243 32.8592 44 33.84Z" stroke="#F5F5F5" stroke-width="4" stroke-linecap="round" stroke-linejoin="round"/>
</svg>
