<svg width="119" height="121" viewBox="0 0 119 121" fill="none" xmlns="http://www.w3.org/2000/svg">
<path d="M59.5 110.917C86.8841 110.917 109.083 88.3444 109.083 60.5C109.083 32.6556 86.8841 10.0833 59.5 10.0833C32.1159 10.0833 9.91666 32.6556 9.91666 60.5C9.91666 88.3444 32.1159 110.917 59.5 110.917Z" stroke="#F3F3F3" stroke-width="4" stroke-linecap="round" stroke-linejoin="round"/>
<path d="M81 42C79.0848 43.351 76.9642 44.3842 74.72 45.06C73.5155 43.675 71.9147 42.6934 70.1341 42.2479C68.3535 41.8023 66.479 41.9144 64.7642 42.5689C63.0493 43.2234 61.5769 44.3888 60.546 45.9074C59.515 47.4261 58.9754 49.2247 59 51.06V53.06C55.4853 53.1511 52.0025 52.3716 48.862 50.7909C45.7215 49.2102 43.0206 46.8773 41 44C41 44 33 62 51 70C46.8811 72.7959 41.9743 74.1979 37 74C55 84 77 74 77 51C76.9982 50.4429 76.9446 49.8872 76.84 49.34C78.8812 47.327 80.3217 44.7854 81 42Z" fill="white" stroke="#F5F5F5" stroke-width="4" stroke-linecap="round" stroke-linejoin="round"/>
</svg>
