<svg xmlns="http://www.w3.org/2000/svg" viewBox="0 0 24 24" preserveAspectRatio="xMidYMid meet" focusable="false" class="style-scope yt-icon" style="pointer-events: none; display: block; width: 100%; height: 100%;"><g class="style-scope yt-icon"><path d="M10,9.35,15,12l-5,2.65ZM12,6a54.36,54.36,0,0,0-7.56.38A1.53,1.53,0,0,0,3.38,7.44,24.63,24.63,0,0,0,3,12a24.63,24.63,0,0,0,.38,4.56,1.53,1.53,0,0,0,1.06,1.06A54.36,54.36,0,0,0,12,18a54.36,54.36,0,0,0,7.56-.38,1.53,1.53,0,0,0,1.06-1.06A24.63,24.63,0,0,0,21,12a24.63,24.63,0,0,0-.38-4.56,1.53,1.53,0,0,0-1.06-1.06A54.36,54.36,0,0,0,12,6h0m0-1s6.25,0,7.81.42a2.51,2.51,0,0,1,1.77,1.77A25.87,25.87,0,0,1,22,12a25.87,25.87,0,0,1-.42,4.81,2.51,2.51,0,0,1-1.77,1.77C18.25,19,12,19,12,19s-6.25,0-7.81-.42a2.51,2.51,0,0,1-1.77-1.77A25.87,25.87,0,0,1,2,12a25.87,25.87,0,0,1,.42-4.81A2.51,2.51,0,0,1,4.19,5.42C5.75,5,12,5,12,5Z" class="style-scope yt-icon"></path></g></svg>
