<svg xmlns="http://www.w3.org/2000/svg" viewBox="0 0 24 24" preserveAspectRatio="xMidYMid meet" focusable="false" class="style-scope yt-icon" style="pointer-events: none; display: block; width: 100%; height: 100%;"><g class="style-scope yt-icon"><path d="M16,4v4h4V4H16z M19,7h-2V5h2V7z M16,10v4h4v-4H16z M19,13h-2v-2h2V13z M10,4v4h4V4H10z M13,7h-2V5h2V7z M10,10v4h4v-4H10z M13,13h-2v-2h2V13z M16,16v4h4v-4H16z M19,19h-2v-2h2V19z M10,16v4h4v-4H10z M13,19h-2v-2h2V19z M4,4v4h4V4H4z M7,7H5V5h2V7z M4,10 v4h4v-4H4z M7,13H5v-2h2V13z M4,16v4h4v-4H4z M7,19H5v-2h2V19z" class="style-scope yt-icon"></path></g></svg>
